# xmcd
#
# Track frame offsets:
#	150
#	2528
#	5826
#	8771
#	12806
#	13582
#	17161
#	19668
#	23144
#	28041
#	31390
#	33919
#	35603
#	38090
#	45169
#	46936
#	48739
#	51085
#	54710
#	56427
#	58501
#	59267
#	65770
#
# Disc length: 907 seconds
#
# Revision: 1
# Processed by: cddbd v1.5.2PL0 Copyright (c) Steve Scherf et al.
# Submitted via: audiograbber 1.83.01
#
DISCID=1d038917
DTITLE=Jesus Cröst - 010
DYEAR=2009
DGENRE=Grindcore
TTITLE0=Verblutung
TTITLE1=Familienopfer
TTITLE2=Rapsol
TTITLE3=Ungeheuer
TTITLE4=Giftmord
TTITLE5=Foltertod
TTITLE6=Torentfernung
TTITLE7=Fickpisse
TTITLE8=Kackstift
TTITLE9=Glanzklit
TTITLE10=Cocoloco
TTITLE11=Wurfloch
TTITLE12=Trauerbinde
TTITLE13=Parasit
TTITLE14=Gonorrhoea
TTITLE15=Tsarbomba
TTITLE16=Frostkeller
TTITLE17=Laufpensum
TTITLE18=Steiningungssyndrom
TTITLE19=Battiston
TTITLE20=Solve the conflict
TTITLE21=Abtreibung
TTITLE22=Eiterwunde
EXTD=
EXTT0=
EXTT1=
EXTT2=
EXTT3=
EXTT4=
EXTT5=
EXTT6=
EXTT7=
EXTT8=
EXTT9=
EXTT10=
EXTT11=
EXTT12=
EXTT13=
EXTT14=
EXTT15=
EXTT16=
EXTT17=
EXTT18=
EXTT19=
EXTT20=
EXTT21=
EXTT22=
PLAYORDER=
